<mxfile host="app.diagrams.net" modified="2020-07-30T01:56:18.126Z" agent="5.0 (X11; Linux x86_64) AppleWebKit/537.36 (KHTML, like Gecko) Chrome/84.0.4147.89 Safari/537.36" etag="IGxLWfVwn-S7-D4eNhEi" version="13.5.4" type="github">
  <diagram id="8P_ioFvB78RnzZVXRbkj" name="Page-1">
    <mxGraphModel dx="1008" dy="620" grid="1" gridSize="10" guides="1" tooltips="1" connect="1" arrows="1" fold="1" page="1" pageScale="1" pageWidth="827" pageHeight="1169" math="0" shadow="0">
      <root>
        <mxCell id="0" />
        <mxCell id="1" parent="0" />
        <mxCell id="9wa00RFNZw5KU8qZqsCy-3" value="" style="rounded=0;whiteSpace=wrap;html=1;fillColor=none;" vertex="1" parent="1">
          <mxGeometry x="250" y="90" width="510" height="300" as="geometry" />
        </mxCell>
        <mxCell id="9wa00RFNZw5KU8qZqsCy-15" style="edgeStyle=orthogonalEdgeStyle;rounded=0;orthogonalLoop=1;jettySize=auto;html=1;entryX=0;entryY=0.5;entryDx=0;entryDy=0;" edge="1" parent="1" source="9wa00RFNZw5KU8qZqsCy-1" target="9wa00RFNZw5KU8qZqsCy-14">
          <mxGeometry relative="1" as="geometry">
            <Array as="points">
              <mxPoint x="330" y="240" />
              <mxPoint x="330" y="170" />
            </Array>
          </mxGeometry>
        </mxCell>
        <mxCell id="9wa00RFNZw5KU8qZqsCy-19" value="&lt;font style=&quot;font-size: 15px&quot;&gt;Depth image&lt;/font&gt;" style="edgeLabel;html=1;align=center;verticalAlign=middle;resizable=0;points=[];" vertex="1" connectable="0" parent="9wa00RFNZw5KU8qZqsCy-15">
          <mxGeometry x="-0.6183" relative="1" as="geometry">
            <mxPoint as="offset" />
          </mxGeometry>
        </mxCell>
        <mxCell id="9wa00RFNZw5KU8qZqsCy-1" value="&lt;font style=&quot;font-size: 15px&quot;&gt;Camera&lt;/font&gt;" style="ellipse;whiteSpace=wrap;html=1;" vertex="1" parent="1">
          <mxGeometry x="20" y="200" width="120" height="80" as="geometry" />
        </mxCell>
        <mxCell id="9wa00RFNZw5KU8qZqsCy-4" value="&lt;font style=&quot;font-size: 15px&quot;&gt;Follower node&lt;/font&gt;" style="text;html=1;strokeColor=none;fillColor=none;align=center;verticalAlign=middle;whiteSpace=wrap;rounded=0;" vertex="1" parent="1">
          <mxGeometry x="400" y="110" width="110" height="20" as="geometry" />
        </mxCell>
        <mxCell id="9wa00RFNZw5KU8qZqsCy-12" value="" style="rounded=0;whiteSpace=wrap;html=1;fillColor=none;gradientColor=none;" vertex="1" parent="1">
          <mxGeometry x="309" y="140" width="201" height="200" as="geometry" />
        </mxCell>
        <mxCell id="9wa00RFNZw5KU8qZqsCy-18" style="edgeStyle=orthogonalEdgeStyle;rounded=0;orthogonalLoop=1;jettySize=auto;html=1;entryX=0.5;entryY=0;entryDx=0;entryDy=0;" edge="1" parent="1" source="9wa00RFNZw5KU8qZqsCy-14" target="9wa00RFNZw5KU8qZqsCy-17">
          <mxGeometry relative="1" as="geometry" />
        </mxCell>
        <mxCell id="9wa00RFNZw5KU8qZqsCy-20" value="&lt;font style=&quot;font-size: 15px&quot;&gt;Depth points&lt;/font&gt;" style="edgeLabel;html=1;align=center;verticalAlign=middle;resizable=0;points=[];" vertex="1" connectable="0" parent="9wa00RFNZw5KU8qZqsCy-18">
          <mxGeometry x="-0.26" relative="1" as="geometry">
            <mxPoint as="offset" />
          </mxGeometry>
        </mxCell>
        <mxCell id="9wa00RFNZw5KU8qZqsCy-14" value="&lt;font style=&quot;font-size: 13px&quot;&gt;Depth point finder&lt;/font&gt;" style="ellipse;whiteSpace=wrap;html=1;fillColor=none;gradientColor=none;" vertex="1" parent="1">
          <mxGeometry x="354" y="150" width="120" height="40" as="geometry" />
        </mxCell>
        <mxCell id="9wa00RFNZw5KU8qZqsCy-22" style="edgeStyle=orthogonalEdgeStyle;rounded=0;orthogonalLoop=1;jettySize=auto;html=1;entryX=0.5;entryY=1;entryDx=0;entryDy=0;" edge="1" parent="1" source="9wa00RFNZw5KU8qZqsCy-17" target="9wa00RFNZw5KU8qZqsCy-21">
          <mxGeometry relative="1" as="geometry">
            <Array as="points">
              <mxPoint x="550" y="290" />
              <mxPoint x="550" y="240" />
              <mxPoint x="680" y="240" />
            </Array>
          </mxGeometry>
        </mxCell>
        <mxCell id="9wa00RFNZw5KU8qZqsCy-28" style="edgeStyle=orthogonalEdgeStyle;rounded=0;orthogonalLoop=1;jettySize=auto;html=1;exitX=1;exitY=0.5;exitDx=0;exitDy=0;entryX=0.5;entryY=0;entryDx=0;entryDy=0;" edge="1" parent="1" source="9wa00RFNZw5KU8qZqsCy-17" target="9wa00RFNZw5KU8qZqsCy-27">
          <mxGeometry relative="1" as="geometry">
            <Array as="points">
              <mxPoint x="550" y="290" />
              <mxPoint x="550" y="240" />
              <mxPoint x="680" y="240" />
            </Array>
          </mxGeometry>
        </mxCell>
        <mxCell id="9wa00RFNZw5KU8qZqsCy-30" value="&lt;span style=&quot;font-size: 14px&quot;&gt;Depth point&lt;/span&gt;" style="edgeLabel;html=1;align=center;verticalAlign=middle;resizable=0;points=[];" vertex="1" connectable="0" parent="9wa00RFNZw5KU8qZqsCy-28">
          <mxGeometry x="0.2407" relative="1" as="geometry">
            <mxPoint x="-16" as="offset" />
          </mxGeometry>
        </mxCell>
        <mxCell id="9wa00RFNZw5KU8qZqsCy-17" value="&lt;font style=&quot;font-size: 15px&quot;&gt;Chooser&lt;/font&gt;" style="ellipse;whiteSpace=wrap;html=1;fillColor=none;gradientColor=none;" vertex="1" parent="1">
          <mxGeometry x="354" y="270" width="120" height="40" as="geometry" />
        </mxCell>
        <mxCell id="9wa00RFNZw5KU8qZqsCy-25" style="edgeStyle=orthogonalEdgeStyle;rounded=0;orthogonalLoop=1;jettySize=auto;html=1;exitX=1;exitY=0.5;exitDx=0;exitDy=0;" edge="1" parent="1" source="9wa00RFNZw5KU8qZqsCy-21" target="9wa00RFNZw5KU8qZqsCy-24">
          <mxGeometry relative="1" as="geometry" />
        </mxCell>
        <mxCell id="9wa00RFNZw5KU8qZqsCy-26" value="&lt;span style=&quot;font-size: 15px&quot;&gt;Forward speed&lt;/span&gt;" style="edgeLabel;html=1;align=center;verticalAlign=middle;resizable=0;points=[];" vertex="1" connectable="0" parent="9wa00RFNZw5KU8qZqsCy-25">
          <mxGeometry x="0.0192" y="-1" relative="1" as="geometry">
            <mxPoint y="-1" as="offset" />
          </mxGeometry>
        </mxCell>
        <mxCell id="9wa00RFNZw5KU8qZqsCy-21" value="&lt;font style=&quot;font-size: 15px&quot;&gt;P controller&lt;/font&gt;" style="ellipse;whiteSpace=wrap;html=1;fillColor=none;gradientColor=none;" vertex="1" parent="1">
          <mxGeometry x="620" y="130" width="120" height="40" as="geometry" />
        </mxCell>
        <mxCell id="9wa00RFNZw5KU8qZqsCy-24" value="&lt;font style=&quot;font-size: 15px&quot;&gt;Turtlebot chassis&lt;/font&gt;" style="ellipse;whiteSpace=wrap;html=1;fillColor=none;gradientColor=none;" vertex="1" parent="1">
          <mxGeometry x="950" y="200" width="120" height="80" as="geometry" />
        </mxCell>
        <mxCell id="9wa00RFNZw5KU8qZqsCy-31" style="edgeStyle=orthogonalEdgeStyle;rounded=0;orthogonalLoop=1;jettySize=auto;html=1;entryX=0.5;entryY=1;entryDx=0;entryDy=0;" edge="1" parent="1" source="9wa00RFNZw5KU8qZqsCy-27" target="9wa00RFNZw5KU8qZqsCy-24">
          <mxGeometry relative="1" as="geometry" />
        </mxCell>
        <mxCell id="9wa00RFNZw5KU8qZqsCy-32" value="&lt;font style=&quot;font-size: 15px&quot;&gt;Turn speed&lt;/font&gt;" style="edgeLabel;html=1;align=center;verticalAlign=middle;resizable=0;points=[];" vertex="1" connectable="0" parent="9wa00RFNZw5KU8qZqsCy-31">
          <mxGeometry x="0.0225" relative="1" as="geometry">
            <mxPoint as="offset" />
          </mxGeometry>
        </mxCell>
        <mxCell id="9wa00RFNZw5KU8qZqsCy-27" value="&lt;font style=&quot;font-size: 15px&quot;&gt;P controller&lt;/font&gt;" style="ellipse;whiteSpace=wrap;html=1;fillColor=none;gradientColor=none;" vertex="1" parent="1">
          <mxGeometry x="620" y="310" width="120" height="40" as="geometry" />
        </mxCell>
      </root>
    </mxGraphModel>
  </diagram>
</mxfile>
